<svg xmlns="http://www.w3.org/2000/svg" width="56.268" height="21.966" viewBox="0 0 56.268 21.966"><defs><style>.a{fill:#f27326;}.b{fill:#fff;}</style></defs><g transform="translate(-11)"><g transform="translate(11)"><rect class="a" width="21.966" height="21.966" transform="translate(17.281)"/><path class="b" d="M356.021,60.5h14.63v3.111l-8.734,8.19h8.746v3.341H355.9V71.916l8.644-8.1h-8.522Z" transform="translate(-335.024 -56.838)"/><g transform="translate(0 3.329)"><path class="b" d="M18,64.533v1.985c0,2.391-1.192,3.753-3.5,3.753S11,68.9,11,66.519V58.753C11,56.362,12.192,55,14.5,55S18,56.368,18,58.753v1.453H15.776v-1.6c0-1.065-.472-1.471-1.217-1.471s-1.217.406-1.217,1.471v8.069c0,1.065.472,1.453,1.217,1.453s1.217-.381,1.217-1.453V64.539H18Z" transform="translate(-11 -55)"/><path class="b" d="M148.214,72.739h-2.367l-.406-2.712H142.56l-.406,2.712H140L142.391,57.8h3.438ZM142.857,68h2.264l-1.132-7.554Z" transform="translate(-132.192 -57.631)"/></g><g transform="translate(40.906 3.329)"><path class="b" d="M693.8,64.533v1.985c0,2.391-1.192,3.753-3.5,3.753s-3.5-1.368-3.5-3.753V58.753c0-2.391,1.192-3.753,3.5-3.753s3.5,1.368,3.5,3.753v1.453h-2.221v-1.6c0-1.065-.472-1.471-1.217-1.471s-1.217.406-1.217,1.471v8.069c0,1.065.472,1.453,1.217,1.453s1.217-.381,1.217-1.453V64.539H693.8Z" transform="translate(-686.8 -55)"/><path class="b" d="M822.8,58.753c0-2.391,1.259-3.753,3.565-3.753s3.565,1.368,3.565,3.753v7.766c0,2.391-1.259,3.753-3.565,3.753S822.8,68.9,822.8,66.519Zm2.349,7.917c0,1.065.472,1.471,1.217,1.471s1.217-.406,1.217-1.471V58.6c0-1.065-.472-1.471-1.217-1.471s-1.217.406-1.217,1.471Z" transform="translate(-814.568 -55)"/></g></g></g></svg>