<?xml version="1.0" encoding="UTF-8"?>
<svg xmlns="http://www.w3.org/2000/svg" xmlns:xlink="http://www.w3.org/1999/xlink" width="83pt" height="83pt" viewBox="0 0 83 83" version="1.1">
<g id="surface1">
<path style=" stroke:none;fill-rule:nonzero;fill:rgb(0%,0%,0%);fill-opacity:1;" d="M 73.132812 10.996094 L 9.867188 10.996094 C 4.898438 10.996094 0.828125 15.066406 0.828125 20.035156 L 0.828125 62.972656 C 0.828125 67.945312 4.898438 72.011719 9.867188 72.011719 L 73.132812 72.011719 C 78.101562 72.011719 82.171875 67.945312 82.171875 62.972656 L 82.171875 20.035156 C 82.171875 15.066406 78.101562 10.996094 73.132812 10.996094 Z M 78.785156 62.027344 C 78.785156 66.582031 76.75 68.617188 72.195312 68.617188 L 10.816406 68.617188 C 6.257812 68.617188 4.226562 66.582031 4.226562 62.027344 L 4.226562 20.972656 C 4.226562 16.417969 6.257812 14.382812 10.816406 14.382812 L 72.195312 14.382812 C 76.75 14.382812 78.785156 16.417969 78.785156 20.972656 Z M 26.253906 34.71875 L 34.71875 41.5 L 56.746094 22.859375 L 73.695312 38.113281 L 73.695312 63.535156 L 9.304688 63.535156 L 9.304688 48.28125 Z M 16.085938 19.472656 C 12.34375 19.472656 9.304688 22.507812 9.304688 26.253906 C 9.304688 29.996094 12.34375 33.035156 16.085938 33.035156 C 19.828125 33.035156 22.867188 29.996094 22.867188 26.253906 C 22.867188 22.507812 19.828125 19.472656 16.085938 19.472656 Z M 16.085938 19.472656 "/>
</g>
</svg>
